<?xml version="1.0" encoding="utf-8"?>
<!-- Generator: Adobe Illustrator 23.0.4, SVG Export Plug-In . SVG Version: 6.00 Build 0)  -->
<svg version="1.1" id="Layer_1" xmlns="http://www.w3.org/2000/svg" xmlns:xlink="http://www.w3.org/1999/xlink" x="0px" y="0px"
	 viewBox="0 0 77 36" style="enable-background:new 0 0 77 36;" xml:space="preserve">
<style type="text/css">
	.st0{fill-rule:evenodd;clip-rule:evenodd;fill:#151515;}
	.st1{fill:none;stroke:#151515;stroke-width:5;}
</style>
<title>Group 2</title>
<desc>Created with Sketch.</desc>
<g id="Page-1">
	<g id="Service" transform="translate(-208.000000, -167.000000)">
		<g id="Group-2" transform="translate(208.000000, 167.000000)">
			<path id="GO" class="st0" d="M25.5,17.8h5.9v13.4c-1.7,1.4-3.7,2.4-6,3.2s-4.7,1.1-7.1,1.1c-3.4,0-6.5-0.7-9.3-2.2
				S4,29.7,2.5,27.1s-2.4-5.6-2.4-8.9s0.8-6.3,2.4-8.9S6.2,4.6,9,3.2s5.9-2.2,9.3-2.2c2.8,0,5.4,0.5,7.7,1.4s4.2,2.3,5.8,4.1
				l-3.9,3.8c-2.6-2.6-5.6-3.8-9.3-3.8c-2.4,0-4.5,0.5-6.3,1.5S9,10.3,8,12.1s-1.6,3.8-1.6,6.1c0,2.2,0.5,4.3,1.6,6
				c1,1.8,2.5,3.2,4.3,4.2s3.9,1.5,6.3,1.5c2.6,0,4.9-0.6,6.9-1.7v-4.8h-8.4v-5.6H25.5z M54,35.5c-3.4,0-6.5-0.7-9.3-2.2
				s-4.9-3.6-6.5-6.2c-1.6-2.6-2.4-5.6-2.4-8.9s0.8-6.2,2.4-8.9c1.6-2.6,3.7-4.7,6.5-6.2s5.8-2.2,9.3-2.2c3.4,0,6.5,0.7,9.3,2.2
				s4.9,3.5,6.5,6.2c1.6,2.6,2.4,5.6,2.4,8.9s-0.8,6.3-2.4,8.9c-1.6,2.6-3.7,4.7-6.5,6.2S57.4,35.5,54,35.5z M54,30
				c2.2,0,4.3-0.5,6-1.5c1.8-1,3.2-2.4,4.2-4.2c1-1.8,1.5-3.8,1.5-6.1s-0.5-4.3-1.5-6.1c-1-1.8-2.4-3.2-4.2-4.2
				c-1.8-1-3.8-1.5-6-1.5c-2.2,0-4.3,0.5-6,1.5c-1.8,1-3.2,2.4-4.2,4.2c-1,1.8-1.5,3.8-1.5,6.1s0.5,4.3,1.5,6.1
				c1,1.8,2.4,3.2,4.2,4.2C49.7,29.5,51.7,30,54,30z"/>
			<polyline id="Path-3-Copy" class="st1" points="48,22.1 54,15.1 59,20.1 75,2 			"/>
		</g>
	</g>
</g>
</svg>
