<?xml version="1.0" encoding="utf-8"?>
<!-- Generator: Adobe Illustrator 23.0.4, SVG Export Plug-In . SVG Version: 6.00 Build 0)  -->
<svg version="1.1" id="Layer_1" xmlns="http://www.w3.org/2000/svg" xmlns:xlink="http://www.w3.org/1999/xlink" x="0px" y="0px"
	 viewBox="0 0 324.7 70.3" style="enable-background:new 0 0 324.7 70.3;" xml:space="preserve">
<style type="text/css">
	.st0{fill:#040000;}
</style>
<g>
	<path class="st0" d="M94.2,34.1c0-8.9,0.1-17.7,0-26.6c0-2.7,0.9-3.8,3.6-3.8c17.8-0.1,35.5-0.3,53.3-0.4c4,0,4.4,0.4,4.4,4.4
		c0.2,17.4,0.4,34.8,0.6,52.2c0,4-0.3,4.4-4.3,4.4c-17.6,0.2-35.3,0.4-52.9,0.7c-3,0.1-4.1-0.9-4-4c0.2-9,0.1-18,0.1-27
		C94.7,34.1,94.4,34.1,94.2,34.1z M129.2,16.1c0,4.7,0,8.9,0,13c4.9,0,9.4,0,14.2,0c0-4.5,0-8.7,0-13
		C138.6,16.1,133.9,16.1,129.2,16.1z M142.6,52.2c0-4.1,0-8,0-11.7c-4.5,0-8.8,0-13,0c0,4.1,0,7.8,0,11.7
		C134,52.2,138.1,52.2,142.6,52.2z M118.1,16.6c-4.1,0-7.7,0-11.2,0c0,4.3,0,8.3,0,12.6c4,0,7.6,0,11.2,0
		C118.1,24.9,118.1,20.9,118.1,16.6z M107.6,40c0,4.1,0,8,0,12.1c3.8,0,7.2,0,10.6,0c0-4.1,0-8,0-12.1C114.4,40,111,40,107.6,40z"/>
	<path class="st0" d="M292.6,25c7,0,14,0,20.9,0c3.3,0,4.5,1.4,4.6,5.3c0.1,3,0.3,6,0.4,9c0.2,4.9-0.9,6.5-5,6.7
		c-10.2,0.4-20.4,0.6-30.6,1c-3.7,0.1-7.3,0.5-11,0.5c-3.4,0.1-4.7-1.4-4.8-5.5c-0.2-3.9-0.3-7.7-0.4-11.6c-0.1-4.5,1.1-5.9,4.9-6
		c7,0,13.9,0,20.9,0C292.6,24.7,292.6,24.8,292.6,25z M273.4,38.4c-0.9,2.8,0.2,3.3,2.1,3.2c11-0.3,22-0.5,33-0.7
		c0.6,0,1.3,0.1,1.9-0.1c0.6-0.2,1.1-0.8,1.6-1.3c-0.5-0.4-1.1-1.1-1.6-1.1C298.1,38.4,285.8,38.4,273.4,38.4z M273.4,31
		c0.1,0.5,0.1,0.9,0.2,1.4c12.8,0,25.6,0,38.4,0c-0.4-1-1.1-1.9-1.9-1.9c-11.7-0.1-23.3-0.2-35-0.2C274.5,30.4,273.9,30.8,273.4,31z
		"/>
	<path class="st0" d="M59.7,39.1c-0.2-1.6-0.4-3-0.6-4.8c5.3-1.4,10.6-2,15.9,0c0.9,0.3,1.8,2,1.8,3c0.1,8.3,0,16.7,0.1,25
		c0,1.9-0.7,2.6-2.5,2.6c-10.3,0.3-20.6,0.6-30.9,0.8c-4.2,0.1-7.2-3.5-7.2-7.9c0-6.5,0-13.1,0-19.8c2.9-0.8,5.3-1.5,7.7-2.2
		c1.4-0.4,2.9-0.7,4-1.5c2.5-1.8,3.8-0.9,5.1,1.5c2.9,5.1,2.8,5.5-2.5,7.5c-1.5,0.6-2.9,1.3-4.3,1.9c0.1,0.4,0.1,0.8,0.2,1.1
		c2.1,0,4.2,0,6.3,0c1.6,0,3.5-0.5,3.5,2.2c0,2.5-0.8,4.2-3.4,4.3c-2,0.1-4,0-6.8,0c2.5,2.3,20.5,1.8,22.8-0.3
		c-2.4-0.1-4.2-0.2-6.1-0.3c-2.7,0-4.4-1.1-4.4-4.1c0-3.1,2.2-3.2,4.4-3.2c1.9,0,3.7,0,5.5,0C69.9,40.4,69.1,38.9,59.7,39.1z"/>
	<path class="st0" d="M273.8,15.5c0.4-3.1-0.4-4.2-3-3.5c-0.3,0.1-0.7,0.2-1,0.1c-1.7-0.4-4.5,1.7-5-1.9c-0.5-4.2,0.8-6.1,4.5-6.5
		c3.3-0.3,6.6-0.4,9.9-0.6c0.5,0,1.5,0,1.6-0.3c1.7-4.6,5.6-2.2,8.5-2.6c2.4-0.3,4.9-0.2,7.3,0c1.1,0.1,2.1,1,3.2,1.5
		c0.8,0.3,1.7,0.8,2.5,0.8c3.8,0,7.5,0,11.3-0.3c3.1-0.2,4.3,0.9,3.7,4c-0.2,0.9-0.1,1.8-0.2,3c-3.9,0.1-8.3-0.1-8.1,5.9
		c3.7,0,7.4,0,11.4,0c0,2.5,0,4.6,0,7c-19.7,0-39.2,0-58.9,0c0-2.2,0-4.2,0-6.8C265.7,15.5,269.8,15.5,273.8,15.5z M298.5,10.5
		c-4.4,0-8.6,0-12.8,0c-0.3,4.6-0.3,4.6,3.9,4.6c1.2,0,2.5-0.2,3.6,0C296.8,15.8,298.6,14.4,298.5,10.5z"/>
	<path class="st0" d="M197.4,47.6c-4.5,0-9.1,0.1-13.6,0c-1.9,0-2.7,0.5-3,2.5c-0.6,3.8-1.6,7.6-2.6,11.3c-0.8,2.9-2,3.1-4.2,1
		c-0.6-0.5-1.1-1.1-1.6-1.6c-1.8-2-2.5-3.8-1.8-7c1.8-7.9,2.7-16.1,3.7-24.1c0.5-3.6,1.2-4.8,4.8-4.8c10.6-0.2,21.3-0.3,31.9-0.5
		c2.4-0.1,3.5,0.7,3.5,3.1c0.1,5.4,0.3,10.9,0.4,16.3c0,2.5-1.3,3.5-3.8,3.5c-4.5-0.1-9.1,0-13.6,0
		C197.4,47.3,197.4,47.4,197.4,47.6z M203.3,40.2c0.3-0.3,0.5-0.7,0.8-1c-0.7-0.5-1.5-1.5-2.2-1.5c-5.2,0.1-10.4,0.3-15.6,0.7
		c-0.6,0-1.2,1.2-1.8,1.9c0.2,0.3,0.5,0.6,0.7,0.9C191.3,40.8,197.3,40.5,203.3,40.2z M203.4,30c-5.6,0-11-0.1-16.3,0.1
		c-0.8,0-1.7,0.9-2.5,1.4c0.2,0.3,0.3,0.6,0.5,0.9c5.4,0,10.8-0.1,16.2,0C203.5,32.3,203.8,31.4,203.4,30z"/>
	<path class="st0" d="M0,31.9c0.2-2.5,0.6-4.6,0.4-6.6c-0.3-2.2,0.7-2.8,2.5-2.9c2.6-0.2,5.2-0.5,8-0.8c0-1.9,0-3.5,0-5.2
		c-3.3-0.2-6.6-0.5-9.9-0.7c0.2-1.9,0.3-3.2,0.4-4.5c0.1-4.6,0.1-4.5,4.5-4.8c6.2-0.5,12.4-1.1,18.6-1.8c3.8-0.4,4.4,0,4.4,3.9
		c0,0.4,0,0.9,0,1.3c0,4.7,0,4.7-4.6,5.2c-1,0.1-1.9,0.3-3.1,0.5c0,1,0,1.9,0,2.7c0.1,0.9,0.2,1.7,0.3,2.8c2.1,0,4.1,0,6.1,0
		c0.5,0,1.5,0,1.6,0.1c0.4,2.4,0.9,4.9,0.9,7.3c0,0.8-1.2,2-2.1,2.3c-1.9,0.6-3.9,0.7-6.3,1c-0.1,1.1-0.2,2.3-0.2,3.4
		c0,7.5,0,15.1,0,22.6c0,2.7-0.6,4-3.8,3.8c-6.7-0.4-6.8-0.2-6.8-7c0-7.4,0-14.8,0-22.7C7.2,31.9,3.6,31.9,0,31.9z"/>
	<path class="st0" d="M233.5,5.8c3,0,5.6,0,8.5,0c0.1,1,0.2,1.9,0.2,2.9c0,16.5,0,33.1,0,49.6c0,3-4.4,9.5-7.3,10.3
		c-3.1,0.9-4.7-1.7-6.1-3.6c-0.5-0.7,0.2-3,1-3.9c2.8-2.9,3.9-6,3.8-10.1C233.3,36.2,233.5,21.2,233.5,5.8z"/>
	<path class="st0" d="M282.9,59.1c12.5,0,25,0,37.7,0c0-2.6,0-4.8,0-7.2c1.3-0.1,2.3-0.2,4.1-0.3c-0.3,5-0.4,9.8-1,14.5
		c-0.1,0.9-2.2,2.1-3.4,2.1c-9.2,0-18.4-0.4-27.6-0.5c-4,0-7.9,0.3-11.9,0.6c-3.6,0.3-6.5-2.4-6.9-6.1c-0.3-3-0.9-6-1.1-9.1
		c0-0.7,0.9-2,1.5-2.1c2.1-0.4,4.4-0.7,6.5-0.4c0.7,0.1,1.3,2.1,1.5,3.2C282.8,55.3,282.8,57,282.9,59.1z"/>
	<path class="st0" d="M215.5,9.7c-1.6,1.9-2.9,3.5-4.2,5.2c-2.6,3.4-4.7,4.3-7.9,1.5c-6.6-5.6-12.6-4.5-18.9,0.1
		c-1.7,1.2-3.7,2-5.5,3c-0.1,0.1-0.2,0.2-0.3,0.2c-0.9-0.3-2.2-0.5-2.6-1.1c-1.3-2.4-2.2-4.9-3.2-7.4c0-0.1,0.3-0.4,0.5-0.4
		C180.3,10.4,185,5,191.1,3c2-0.7,4.5-0.9,6.4-0.2c4.4,1.5,8.5,3.7,12.7,5.5C211.9,8.9,213.7,9.2,215.5,9.7z"/>
	<path class="st0" d="M43.9,15c-0.9,0-1.8,0.1-2.7,0c-3.9-0.4-4.6-1.2-4-5.1c0.7-4.7,0.7-4.6,5.6-4.8C52.2,4.6,61.6,4,71,3.5
		c0.6,0,1.1-0.2,1.7-0.1C74.2,3.8,76.8,4,77,4.8c0.5,2.3,0.4,4.8-0.1,7.1c-0.1,0.6-2.2,1.1-3.5,1.2C63.6,13.8,53.7,14.4,43.9,15z"/>
	<path class="st0" d="M214,64.3c-9.2,0-18,0.1-26.9-0.1c-2.5,0-4-1.6-3.6-4.4c0.4-3,0.6-5.9,0.9-9.2c9.4,0,19,0,28.8,0
		C213.5,55,213.7,59.3,214,64.3z M191.6,54.9c-0.2,0.3-0.4,0.6-0.5,1c0.7,0.6,1.4,1.7,2.2,1.7c4.4,0.2,8.8,0.1,13.6,0.1
		c-0.1-1.3-0.2-2.2-0.2-2.8C201.3,54.9,196.5,54.9,191.6,54.9z"/>
	<path class="st0" d="M230.1,38.9c0,3.2-0.2,6.4,0.1,9.6c0.2,2.4-0.9,3.6-3.1,3.6c-2.4,0-4.7-0.7-4.9-3.4c-0.4-9.5-0.6-19-0.7-28.5
		c0-3.5,2.8-2.3,4.6-2.5c2-0.3,3.4,0.1,3.4,2.7c-0.1,6.2,0,12.4,0,18.6C229.7,38.9,229.9,38.9,230.1,38.9z"/>
	<path class="st0" d="M0.1,36.7c7.7-0.9,7.7-0.9,7.6,5.8c-0.1,5.2-0.1,10.4-0.2,15.6c0,1.1-0.2,2.2-0.3,3.4c-2.6,0-4.8,0-7.1,0
		C0.1,53.3,0.1,45.1,0.1,36.7z"/>
	<path class="st0" d="M264.9,70.3c-2.5-2.1-5.1-4.2-7.9-6.5c5-2.6,5.7-6.8,5.6-11.1c-0.1-2,0.9-2.9,2.3-2.8c1.9,0.1,4.9,0.4,5.5,1.6
		C272.9,56,269.5,66.9,264.9,70.3z"/>
	<path class="st0" d="M68.3,17.6c1,0,2,0,3,0c5.4-0.1,5.6,0.3,5.8,5.8c0.1,2.9-1.3,4-3.8,4.2c-3.3,0.1-6.6,0.2-10,0.1
		c-2.6-0.1-4.1-2.6-3.9-6.2c0.2-2.7,1.4-4,4.3-3.8C65.2,17.8,66.8,17.6,68.3,17.6L68.3,17.6z"/>
	<path class="st0" d="M31.6,44.9c0,0.6-0.1,1.6-0.2,2.6c-0.2,3.8-1.3,5-5.2,4.7c-0.9-0.1-2.4-1.5-2.4-2.3c-0.2-3.5,0-7.1,0.3-10.6
		c0.2-3,2.4-3.7,5-3.6c2.7,0.1,2.5,2.3,2.5,4.2C31.6,41.4,31.6,42.9,31.6,44.9z"/>
	<path class="st0" d="M286.8,49.5c4.7,0,9.2,0,13.5,0c0,2.1,0,4.3,0,6.8c-3.9,0-7.5,0.1-11.2-0.1c-0.8-0.1-1.9-1.4-2.3-2.3
		C286.5,52.8,286.8,51.4,286.8,49.5z"/>
	<path class="st0" d="M318.6,49c0,2.8,0,5.2,0,8c-3.7-0.3-7.2-0.3-10.6-1c-0.9-0.2-1.5-2.5-1.8-3.9c-0.4-2.1,1.2-3,2.9-3.2
		C312.2,48.9,315.3,49,318.6,49z"/>
	<path class="st0" d="M204.4,18.3c0.9,2.9,0.2,4-2.5,3.9c-6.3-0.1-12.6,0-19,0c0-1.3,0-2.4,0-3.9C190,18.3,197.1,18.3,204.4,18.3z"
		/>
	<path class="st0" d="M56.9,22.6c0,4.1-0.7,4.9-4.2,5c-3.8,0-5-1-5-4.8c-0.1-3.5,1.5-4.9,5.5-4.8C57.1,17.9,57,20.6,56.9,22.6z"/>
	<path class="st0" d="M44.8,23.8c-0.1,3.8-1.2,4.9-5.2,4.7c-3.1-0.2-2.7-2.7-2.7-4.7c0-3.8,0.7-4.4,5.2-4.5
		C44.5,19.3,44.9,19.9,44.8,23.8z"/>
</g>
</svg>
