<?xml version="1.0" encoding="utf-8"?>
<!-- Generator: Adobe Illustrator 23.0.4, SVG Export Plug-In . SVG Version: 6.00 Build 0)  -->
<svg version="1.1" id="Layer_1" xmlns="http://www.w3.org/2000/svg" xmlns:xlink="http://www.w3.org/1999/xlink" x="0px" y="0px"
	 viewBox="0 0 283.5 61.4" style="enable-background:new 0 0 283.5 61.4;" xml:space="preserve">
<style type="text/css">
	.st0{fill-rule:evenodd;clip-rule:evenodd;fill:#040000;}
</style>
<g id="Page-1">
	<path class="st0" d="M82.3,29.8c0-7.9,0.2-15.5,0-23.2c0-2.4,0.9-3.2,3.1-3.2C100.9,3.2,116.4,3,131.9,3c3.4,0,3.9,0.3,3.9,3.9
		c0.2,15.2,0.3,30.4,0.5,45.6c0,3.4-0.3,3.9-3.8,3.9c-15.4,0.2-30.9,0.3-46.2,0.7c-2.6,0.2-3.6-0.9-3.4-3.4
		c0.2-7.9,0.2-15.7,0.2-23.6C82.6,29.8,82.4,29.8,82.3,29.8z M112.8,14.1c0,4.1,0,7.9,0,11.4c4.3,0,8.2,0,12.5,0c0-3.9,0-7.7,0-11.4
		C121,14.1,116.9,14.1,112.8,14.1z M124.4,45.5c0-3.6,0-7,0-10.2c-3.9,0-7.7,0-11.4,0c0,3.6,0,6.8,0,10.2
		C116.9,45.5,120.5,45.5,124.4,45.5z M103.1,14.5c-3.6,0-6.7,0-9.7,0c0,3.8,0,7.2,0,10.9c3.4,0,6.7,0,9.7,0
		C103.1,21.8,103.1,18.2,103.1,14.5z M93.9,34.9c0,3.6,0,7,0,10.6c3.2,0,6.3,0,9.2,0c0-3.6,0-7,0-10.6
		C99.8,34.9,96.9,34.9,93.9,34.9z"/>
	<path class="st0" d="M255.5,21.8c6.1,0,12.3,0,18.3,0c2.9,0,3.9,1.2,4.1,4.6c0.2,2.6,0.3,5.3,0.3,7.9c0.2,4.3-0.9,5.6-4.4,5.8
		c-8.9,0.3-17.7,0.5-26.8,0.9c-3.2,0.2-6.3,0.5-9.6,0.5c-2.9,0.2-4.1-1.2-4.3-4.8c-0.2-3.4-0.3-6.7-0.3-10.1c-0.2-3.9,1-5.1,4.3-5.3
		c6.1,0,12.1,0,18.3,0C255.5,21.6,255.5,21.6,255.5,21.8z M238.8,33.6c-0.9,2.4,0.2,2.9,1.9,2.7c9.6-0.3,19.3-0.5,28.8-0.7
		c0.5,0,1.2,0.2,1.7-0.2c0.5-0.2,1-0.7,1.4-1.2c-0.5-0.3-1-1-1.4-1C260.3,33.6,249.5,33.6,238.8,33.6z M238.8,27.1
		c0.2,0.5,0.2,0.9,0.2,1.2c11.1,0,22.4,0,33.4,0c-0.3-0.9-1-1.7-1.7-1.7c-10.2-0.2-20.3-0.2-30.5-0.2
		C239.6,26.6,239.1,26.9,238.8,27.1z"/>
	<path class="st0" d="M52.1,34.1c-0.2-1.4-0.3-2.6-0.5-4.3c4.6-1.2,9.2-1.7,13.8,0c0.9,0.3,1.5,1.7,1.5,2.6c0.2,7.2,0,14.5,0.2,21.8
		c0,1.7-0.7,2.2-2.2,2.2c-9,0.3-17.9,0.5-27,0.7c-3.6,0.2-6.3-3.1-6.3-6.8c0-5.6,0-11.4,0-17.2c2.6-0.7,4.6-1.4,6.7-1.9
		c1.2-0.3,2.6-0.7,3.4-1.4c2.2-1.5,3.2-0.9,4.4,1.4c2.6,4.4,2.4,4.8-2.2,6.5c-1.4,0.5-2.6,1.2-3.8,1.7c0.2,0.3,0.2,0.7,0.2,1
		c1.9,0,3.6,0,5.5,0c1.4,0,3.1-0.5,3.1,1.9c0,2.2-0.7,3.6-2.9,3.8c-1.7,0.2-3.4,0-6,0c2.2,2,17.9,1.5,20-0.3c-2-0.2-3.6-0.2-5.3-0.3
		c-2.4,0-3.9-1-3.9-3.6c0-2.7,1.9-2.7,3.9-2.7c1.7,0,3.2,0,4.8,0C61.1,35.3,60.2,33.9,52.1,34.1z"/>
	<path class="st0" d="M239.1,13.6c0.3-2.7-0.3-3.6-2.6-3.1c-0.3,0.2-0.7,0.2-0.9,0.2c-1.5-0.3-3.9,1.5-4.4-1.7
		c-0.5-3.6,0.7-5.3,3.9-5.6c2.9-0.3,5.8-0.3,8.7-0.5c0.5,0,1.4,0,1.4-0.3c1.5-4.1,4.9-1.9,7.3-2.2c2-0.3,4.3-0.2,6.3,0
		c1,0.2,1.9,0.9,2.7,1.4c0.7,0.3,1.5,0.7,2.2,0.7c3.2,0,6.5,0,9.9-0.3c2.7-0.2,3.8,0.9,3.2,3.4c-0.2,0.9-0.2,1.5-0.2,2.6
		c-3.4,0.2-7.2-0.2-7,5.1c3.2,0,6.5,0,9.9,0c0,2.2,0,4.1,0,6.1c-17.2,0-34.3,0-51.4,0c0-1.9,0-3.6,0-6
		C231.9,13.6,235.5,13.6,239.1,13.6z M260.6,9.2c-3.9,0-7.5,0-11.1,0c-0.3,4.1-0.3,4.1,3.4,4.1c1,0,2.2-0.2,3.1,0
		C259.1,13.8,260.6,12.6,260.6,9.2z"/>
	<path class="st0" d="M172.4,41.6c-3.9,0-8,0.2-11.9,0c-1.7,0-2.4,0.5-2.6,2.2c-0.5,3.2-1.4,6.7-2.2,9.9c-0.7,2.6-1.7,2.7-3.6,0.9
		c-0.5-0.5-1-1-1.4-1.4c-1.5-1.7-2.2-3.2-1.5-6.1c1.5-6.8,2.4-14,3.2-21c0.5-3.1,1-4.3,4.3-4.3c9.2-0.2,18.6-0.3,27.8-0.5
		c2-0.2,3.1,0.7,3.1,2.7c0.2,4.8,0.3,9.6,0.3,14.2c0,2.2-1.2,3.1-3.2,3.1c-3.9-0.2-8,0-11.9,0C172.4,41.3,172.4,41.4,172.4,41.6z
		 M177.5,35.1c0.3-0.3,0.5-0.7,0.7-0.9c-0.7-0.5-1.4-1.4-1.9-1.4c-4.6,0.2-9,0.3-13.7,0.7c-0.5,0-1,1-1.5,1.7
		c0.2,0.3,0.5,0.5,0.7,0.9C167.1,35.6,172.2,35.5,177.5,35.1z M177.5,26.2c-4.9,0-9.6-0.2-14.2,0.2c-0.7,0-1.5,0.9-2.2,1.2
		c0.2,0.3,0.3,0.5,0.5,0.9c4.8,0,9.4-0.2,14.2,0C177.7,28.3,178,27.4,177.5,26.2z"/>
	<path class="st0" d="M0,27.9c0.2-2.2,0.5-4.1,0.3-5.8C0,20.3,1,19.8,2.6,19.6c2.2-0.2,4.6-0.5,7-0.7c0-1.7,0-3.1,0-4.6
		c-2.9-0.2-5.8-0.3-8.7-0.5c0.2-1.7,0.3-2.7,0.3-3.9c0.2-4.1,0.2-3.9,3.9-4.3c5.5-0.5,10.8-1,16.2-1.5c3.2-0.3,3.9,0,3.9,3.4
		c0,0.3,0,0.9,0,1.2c0,4.1,0,4.1-4.1,4.6c-0.9,0.2-1.7,0.3-2.7,0.5c0,0.9,0,1.7,0,2.4c0.2,0.9,0.2,1.5,0.3,2.4c1.9,0,3.6,0,5.3,0
		c0.5,0,1.4,0,1.4,0.2c0.3,2,0.9,4.3,0.9,6.3c0,0.7-1,1.7-1.9,2c-1.7,0.5-3.4,0.7-5.5,0.9c-0.2,0.7-0.2,1.7-0.2,2.7
		c0,6.5,0,13.1,0,19.8c0,2.4-0.5,3.4-3.2,3.2c-5.8-0.3-6-0.2-6-6.1c0-6.5,0-13,0-19.8C6.3,27.9,3.1,27.9,0,27.9z"/>
	<path class="st0" d="M203.8,5.1c2.6,0,4.9,0,7.3,0c0.2,0.9,0.2,1.7,0.2,2.6c0,14.3,0,28.8,0,43.3c0,2.6-3.9,8.4-6.3,9
		c-2.7,0.9-4.1-1.5-5.3-3.1c-0.5-0.7,0.2-2.6,0.9-3.4c2.4-2.6,3.4-5.3,3.2-8.9C203.6,31.7,203.8,18.6,203.8,5.1z"/>
	<path class="st0" d="M246.9,51.7c10.9,0,21.8,0,32.9,0c0-2.2,0-4.3,0-6.3c1.2-0.2,2-0.2,3.6-0.3c-0.3,4.4-0.3,8.5-0.9,12.6
		c-0.2,0.9-1.9,1.9-2.9,1.9c-8,0-16-0.3-24.1-0.5c-3.4,0-6.8,0.3-10.4,0.5c-3.1,0.3-5.6-2-6-5.3c-0.3-2.6-0.9-5.3-1-8
		c0-0.7,0.9-1.7,1.4-1.9c1.9-0.3,3.9-0.7,5.6-0.3c0.7,0.2,1.2,1.9,1.4,2.7C246.9,48.3,246.9,49.8,246.9,51.7z"/>
	<path class="st0" d="M188.1,8.5c-1.4,1.7-2.6,3.1-3.6,4.6c-2.2,2.9-4.1,3.8-6.8,1.4c-5.8-4.9-10.9-3.9-16.6,0.2
		c-1.5,1-3.2,1.7-4.8,2.6c-0.2,0.2-0.2,0.2-0.3,0.2c-0.7-0.3-1.9-0.5-2.2-1c-1.2-2.2-1.9-4.4-2.9-6.5c0-0.2,0.3-0.3,0.5-0.3
		c6-0.3,10.1-5.1,15.5-6.8c1.7-0.7,3.9-0.9,5.6-0.2c3.9,1.4,7.3,3.2,11.1,4.8C185,7.8,186.5,8,188.1,8.5z"/>
	<path class="st0" d="M38.4,13.1c-0.9,0-1.5,0.2-2.4,0c-3.4-0.3-4.1-1-3.4-4.4c0.7-4.1,0.7-4.1,4.9-4.3c8.2-0.5,16.4-1,24.6-1.4
		c0.5,0,1-0.2,1.5-0.2c1.2,0.5,3.4,0.7,3.6,1.4c0.5,2,0.3,4.3-0.2,6.1c-0.2,0.5-1.9,1-3.1,1C55.5,12.1,46.9,12.6,38.4,13.1z"/>
	<path class="st0" d="M186.9,56.1c-8,0-15.7,0.2-23.6-0.2c-2.2,0-3.4-1.4-3.1-3.9c0.3-2.6,0.5-5.1,0.9-8c8.2,0,16.6,0,25.1,0
		C186.4,48.1,186.5,51.8,186.9,56.1z M167.2,47.9c-0.2,0.3-0.3,0.5-0.5,0.9c0.7,0.5,1.2,1.5,1.9,1.5c3.9,0.2,7.7,0.2,11.9,0.2
		c-0.2-1.2-0.2-1.9-0.2-2.4C175.8,47.9,171.5,47.9,167.2,47.9z"/>
	<path class="st0" d="M200.9,33.9c0,2.7-0.2,5.6,0.2,8.4c0.2,2-0.9,3.1-2.7,3.1c-2,0-4.1-0.7-4.3-2.9c-0.3-8.4-0.5-16.6-0.7-24.9
		c0-3.1,2.4-2,4.1-2.2c1.7-0.3,2.9,0.2,2.9,2.4c-0.2,5.5,0,10.8,0,16.2C200.5,33.9,200.7,33.9,200.9,33.9z"/>
	<path class="st0" d="M0.2,32c6.7-0.9,6.7-0.9,6.7,5.1c-0.2,4.6-0.2,9-0.2,13.7c0,1-0.2,1.9-0.3,2.9c-2.2,0-4.3,0-6.1,0
		C0.2,46.5,0.2,39.4,0.2,32z"/>
	<path class="st0" d="M231.2,61.4c-2.2-1.9-4.4-3.6-6.8-5.6c4.4-2.2,4.9-6,4.9-9.7c-0.2-1.7,0.9-2.6,2-2.4c1.7,0.2,4.3,0.3,4.8,1.4
		C238.2,48.9,235.3,58.5,231.2,61.4z"/>
	<path class="st0" d="M59.6,15.3c0.9,0,1.7,0,2.6,0c4.8-0.2,4.9,0.3,5.1,5.1C67.4,23,66,23.8,64,24c-2.9,0.2-5.8,0.2-8.7,0.2
		c-2.2-0.2-3.6-2.2-3.4-5.5c0.2-2.4,1.2-3.4,3.8-3.2C57,15.5,58.4,15.3,59.6,15.3L59.6,15.3z"/>
	<path class="st0" d="M27.6,39.2c0,0.5-0.2,1.4-0.2,2.2c-0.2,3.2-1.2,4.4-4.6,4.1c-0.9-0.2-2-1.4-2-2c-0.2-3.1,0-6.1,0.3-9.2
		c0.2-2.6,2-3.2,4.4-3.1s2.2,2,2.2,3.6C27.6,36.1,27.6,37.5,27.6,39.2z"/>
	<path class="st0" d="M250.4,43.3c4.1,0,8,0,11.8,0c0,1.9,0,3.8,0,6c-3.4,0-6.5,0.2-9.7-0.2c-0.7-0.2-1.7-1.2-2-2
		C250.2,46,250.4,44.8,250.4,43.3z"/>
	<path class="st0" d="M278.2,42.8c0,2.4,0,4.6,0,7c-3.2-0.3-6.3-0.3-9.2-0.9c-0.9-0.2-1.4-2.2-1.5-3.4c-0.3-1.9,1-2.6,2.6-2.7
		C272.5,42.8,275.3,42.8,278.2,42.8z"/>
	<path class="st0" d="M178.5,16c0.9,2.6,0.2,3.4-2.2,3.4c-5.5-0.2-10.9,0-16.6,0c0-1.2,0-2,0-3.4C165.9,16,172,16,178.5,16z"/>
	<path class="st0" d="M49.7,19.8c0,3.6-0.7,4.3-3.6,4.4c-3.2,0-4.4-0.9-4.4-4.3c-0.2-3.1,1.4-4.3,4.8-4.3
		C49.8,15.7,49.8,18,49.7,19.8z"/>
	<path class="st0" d="M39.1,20.8c-0.2,3.2-1,4.3-4.6,4.1c-2.7-0.2-2.4-2.4-2.4-4.1c0-3.2,0.7-3.9,4.6-3.9
		C38.9,16.9,39.3,17.4,39.1,20.8z"/>
</g>
</svg>
